<svg xmlns="http://www.w3.org/2000/svg" xmlns:xlink="http://www.w3.org/1999/xlink" version="1.1" x="0px" y="0px" viewBox="0 0 100 100" style="enable-background:new 0 0 100 100;" xml:space="preserve"><g><path d="M50,7C26.2,7,7,26.2,7,50s19.2,43,43,43s43-19.2,43-43S73.8,7,50,7z M50,84.8c-19.2,0-34.8-15.6-34.8-34.8   S30.8,15.2,50,15.2S84.8,30.8,84.8,50S69.2,84.8,50,84.8z"></path><path d="M67,47.3H54.1V33.6c0-2.3-1.8-4.1-4.1-4.1s-4.1,1.8-4.1,4.1v13.7H33.6c-2.3,0-4.1,1.8-4.1,4.1c0,2.3,1.8,4.1,4.1,4.1h12.3   v12.3c0,2.3,1.8,4.1,4.1,4.1s4.1-1.8,4.1-4.1V55.5H67c2.3,0,4.1-1.8,4.1-4.1C71.1,49.2,69.2,47.3,67,47.3z"></path></g></svg>