<svg xmlns="http://www.w3.org/2000/svg" xmlns:xlink="http://www.w3.org/1999/xlink" version="1.1" x="0px" y="0px" viewBox="0 0 98 98" style="enable-background:new 0 0 98 98;" xml:space="preserve"><title>32</title><g><path d="M42,47.5c-1.7,0-3,1.3-3,3v18.3c0,1.7,1.3,3,3,3s3-1.3,3-3V50.5C45,48.8,43.7,47.5,42,47.5z"></path><path d="M56,47.5c-1.7,0-3,1.3-3,3v18.3c0,1.7,1.3,3,3,3s3-1.3,3-3V50.5C59,48.8,57.7,47.5,56,47.5z"></path><path d="M23.7,40.8v37.9c0,4.4,3.6,8,8,8h34.6c4.4,0,8-3.6,8-8V40.8c4.2-0.4,7.4-3.8,7.4-8v-4c0-4.4-3.6-8-8-8H62.3v-1.5   c0-4.4-3.6-8-8-8H43.7c-4.4,0-8,3.6-8,8v1.5H24.3c-4.4,0-8,3.6-8,8v4C16.3,37,19.5,40.4,23.7,40.8z M66.3,80.7H31.7   c-1.1,0-2-0.9-2-2V40.8h38.6v37.9C68.3,79.8,67.4,80.7,66.3,80.7z M41.7,19.3c0-1.1,0.9-2,2-2h10.6c1.1,0,2,0.9,2,2v1.5H41.7V19.3z    M22.3,28.8c0-1.1,0.9-2,2-2h49.4c1.1,0,2,0.9,2,2v4c0,1.1-0.9,2-2,2H24.3c-1.1,0-2-0.9-2-2V28.8z"></path></g></svg>